# xmcd CD database file
#
# Track frame offsets:
#	150
#	12727
#	31740
#	46955
#	62307
#	76765
#	91540
#	106840
#	123227
#	139912
#	154265
#	168722
#	183892
#	203685
#
# Disc length: 2952 seconds
#
# Revision: 1
# Processed by: cddbd v1.4PL0 Copyright (c) Steve Scherf et al.
# Submitted via: CDex 1.50
#
DISCID=a50b860e
DTITLE=Osvaldir and Carlos Magrão - Versos Guitarra E Caminho
DYEAR=1900
DGENRE=Country
TTITLE0=01-Surungo No Campo Fundo
TTITLE1=02-A Trote
TTITLE2=03-Paraguaíta
TTITLE3=04-Bugio Da Campanha
TTITLE4=05-Versos Guitarra E Caminho
TTITLE5=06-Um Pito
TTITLE6=07-De Tanto Tocar Vanerão
TTITLE7=08-Santa Helena Da Serra
TTITLE8=09-Contra O Vento 
TTITLE9=10-Ruas E Luas
TTITLE10=11-Os Cardeais
TTITLE11=12-Tetinha
TTITLE12=13-Estrada Velha
TTITLE13=Cantiga Para Um Amor Ausente
EXTD=
EXTT0=
EXTT1=
EXTT2=
EXTT3=
EXTT4=
EXTT5=
EXTT6=
EXTT7=
EXTT8=
EXTT9=
EXTT10=
EXTT11=
EXTT12=
EXTT13=
PLAYORDER=
